<svg xmlns="http://www.w3.org/2000/svg" xmlns:xlink="http://www.w3.org/1999/xlink" version="1.1" data-diagram-type="CLASS" style="width:406px;height:791px;background:#FFFFFF;" width="406px" height="791px" viewBox="0 0 406 791" zoomAndPan="magnify" preserveAspectRatio="none" contentStyleType="text/css"><?plantuml 1.2026.7beta11?><defs/><g font-family="sans-serif" lengthAdjust="spacing"><g class="title" data-source-line="1"><text x="10" y="22.995" fill="#000" font-size="14" textLength="379.675" font-weight="700" font-family="Arial">Diagramme de classes : Annulation — Ti'Baleine</text></g><!--class Client--><g class="entity" data-qualified-name="Client" id="ent0001" data-source-line="8"><rect x="84.715" y="44.297" width="237.107" height="145.781" fill="#F1F1F1" style="stroke:#181818;stroke-width:0.5;" rx="4" ry="4"/><ellipse cx="178.753" cy="60.297" rx="11" ry="11" fill="#ADD1B2" style="stroke:#181818;stroke-width:1;"/><path d="M181.722,65.938 Q181.144,66.234 180.503,66.375 Q179.863,66.531 179.159,66.531 Q176.659,66.531 175.331,64.891 Q174.019,63.234 174.019,60.109 Q174.019,56.984 175.331,55.328 Q176.659,53.672 179.159,53.672 Q179.863,53.672 180.503,53.828 Q181.159,53.984 181.722,54.281 L181.722,57 Q181.097,56.422 180.503,56.156 Q179.909,55.875 179.284,55.875 Q177.941,55.875 177.253,56.953 Q176.566,58.016 176.566,60.109 Q176.566,62.203 177.253,63.281 Q177.941,64.344 179.284,64.344 Q179.909,64.344 180.503,64.078 Q181.097,63.797 181.722,63.219 L181.722,65.938 Z " fill="#000"/><text x="199.253" y="65.144" fill="#000" font-size="14" textLength="40.53" font-family="Arial">Client</text><line x1="85.715" y1="76.297" x2="320.822" y2="76.297" style="stroke:#181818;stroke-width:0.5;"/><text x="90.715" y="93.292" fill="#000" font-size="14" textLength="98.212" font-family="Arial">+Nom : string</text><text x="90.715" y="109.589" fill="#000" font-size="14" textLength="119.424" font-family="Arial">+Prenom : string</text><text x="90.715" y="125.886" fill="#000" font-size="14" textLength="156.618" font-family="Arial">+Adresse-mail : string</text><text x="90.715" y="142.183" fill="#000" font-size="14" textLength="143.896" font-family="Arial">+Numéro tel : string</text><text x="90.715" y="158.479" fill="#000" font-size="14" textLength="225.107" font-family="Arial">+Reference Reservation : string</text><line x1="85.715" y1="165.781" x2="320.822" y2="165.781" style="stroke:#181818;stroke-width:1;"/><text x="90.715" y="182.776" fill="#000" font-size="14" textLength="144.396" font-family="Arial">+ReserverCreneau()</text></g><!--class Administrateur--><g class="entity" data-qualified-name="Administrateur" id="ent0002" data-source-line="18"><rect x="38.875" y="267.077" width="172.795" height="113.188" fill="#F1F1F1" style="stroke:#181818;stroke-width:0.5;" rx="4" ry="4"/><ellipse cx="70.161" cy="283.077" rx="11" ry="11" fill="#ADD1B2" style="stroke:#181818;stroke-width:1;"/><path d="M73.13,288.718 Q72.551,289.014 71.911,289.155 Q71.27,289.311 70.567,289.311 Q68.067,289.311 66.739,287.671 Q65.426,286.014 65.426,282.889 Q65.426,279.764 66.739,278.108 Q68.067,276.452 70.567,276.452 Q71.27,276.452 71.911,276.608 Q72.567,276.764 73.13,277.061 L73.13,279.78 Q72.505,279.202 71.911,278.936 Q71.317,278.655 70.692,278.655 Q69.348,278.655 68.661,279.733 Q67.973,280.796 67.973,282.889 Q67.973,284.983 68.661,286.061 Q69.348,287.124 70.692,287.124 Q71.317,287.124 71.911,286.858 Q72.505,286.577 73.13,285.999 L73.13,288.718 Z " fill="#000"/><text x="87.78" y="287.924" fill="#000" font-size="14" textLength="104.604" font-family="Arial">Administrateur</text><line x1="39.875" y1="299.077" x2="210.67" y2="299.077" style="stroke:#181818;stroke-width:0.5;"/><text x="44.875" y="316.072" fill="#000" font-size="14" textLength="128.263" font-family="Arial">+Identifiant : type</text><text x="44.875" y="332.369" fill="#000" font-size="14" textLength="149.823" font-family="Arial">+Mot de passe : type</text><text x="44.875" y="348.666" fill="#000" font-size="14" textLength="87.418" font-family="Arial">+Role : type</text><line x1="39.875" y1="355.968" x2="210.67" y2="355.968" style="stroke:#181818;stroke-width:1;"/><text x="44.875" y="372.963" fill="#000" font-size="14" textLength="160.795" font-family="Arial">+AnnulerReservation()</text></g><!--class Reservation--><g class="entity" data-qualified-name="Reservation" id="ent0003" data-source-line="26"><rect x="86.705" y="457.267" width="233.136" height="162.078" fill="#F1F1F1" style="stroke:#181818;stroke-width:0.5;" rx="4" ry="4"/><ellipse cx="157.18" cy="473.267" rx="11" ry="11" fill="#ADD1B2" style="stroke:#181818;stroke-width:1;"/><path d="M160.148,478.907 Q159.57,479.204 158.93,479.345 Q158.289,479.501 157.586,479.501 Q155.086,479.501 153.758,477.861 Q152.445,476.204 152.445,473.079 Q152.445,469.954 153.758,468.298 Q155.086,466.642 157.586,466.642 Q158.289,466.642 158.93,466.798 Q159.586,466.954 160.148,467.251 L160.148,469.97 Q159.523,469.392 158.93,469.126 Q158.336,468.845 157.711,468.845 Q156.367,468.845 155.68,469.923 Q154.992,470.986 154.992,473.079 Q154.992,475.173 155.68,476.251 Q156.367,477.314 157.711,477.314 Q158.336,477.314 158.93,477.048 Q159.523,476.767 160.148,476.189 L160.148,478.907 Z " fill="#000"/><text x="177.68" y="478.114" fill="#000" font-size="14" textLength="83.686" font-family="Arial">Reservation</text><line x1="87.705" y1="489.267" x2="318.84" y2="489.267" style="stroke:#181818;stroke-width:0.5;"/><text x="92.705" y="506.262" fill="#000" font-size="14" textLength="221.136" font-family="Arial">+Reference reservation : string</text><text x="92.705" y="522.559" fill="#000" font-size="14" textLength="167.323" font-family="Arial">+Lieu de départ : string</text><text x="92.705" y="538.856" fill="#000" font-size="14" textLength="162.989" font-family="Arial">+Date de départ : date</text><text x="92.705" y="555.153" fill="#000" font-size="14" textLength="180.339" font-family="Arial">+Heure de départ : enum</text><text x="92.705" y="571.449" fill="#000" font-size="14" textLength="108.151" font-family="Arial">+Statut : enum</text><text x="92.705" y="587.746" fill="#000" font-size="14" textLength="184.714" font-family="Arial">+Type d'excursion : enum</text><text x="92.705" y="604.043" fill="#000" font-size="14" textLength="141.395" font-family="Arial">+Nbre de place : int</text><line x1="87.705" y1="611.345" x2="318.84" y2="611.345" style="stroke:#181818;stroke-width:0.5;"/></g><!--class TypeDePassager--><g class="entity" data-qualified-name="TypeDePassager" id="ent0004" data-source-line="36"><rect x="33.955" y="696.347" width="156.626" height="80.594" fill="#F1F1F1" style="stroke:#181818;stroke-width:0.5;" rx="4" ry="4"/><ellipse cx="48.955" cy="712.347" rx="11" ry="11" fill="#ADD1B2" style="stroke:#181818;stroke-width:1;"/><path d="M51.923,717.988 Q51.345,718.284 50.705,718.425 Q50.064,718.581 49.361,718.581 Q46.861,718.581 45.533,716.941 Q44.22,715.284 44.22,712.159 Q44.22,709.034 45.533,707.378 Q46.861,705.722 49.361,705.722 Q50.064,705.722 50.705,705.878 Q51.361,706.034 51.923,706.331 L51.923,709.05 Q51.298,708.472 50.705,708.206 Q50.111,707.925 49.486,707.925 Q48.142,707.925 47.455,709.003 Q46.767,710.066 46.767,712.159 Q46.767,714.253 47.455,715.331 Q48.142,716.394 49.486,716.394 Q50.111,716.394 50.705,716.128 Q51.298,715.847 51.923,715.269 L51.923,717.988 Z " fill="#000"/><text x="62.955" y="717.194" fill="#000" font-size="14" textLength="124.626" font-family="Arial">Type de passager</text><line x1="34.955" y1="728.347" x2="189.581" y2="728.347" style="stroke:#181818;stroke-width:0.5;"/><text x="39.955" y="745.342" fill="#000" font-size="14" textLength="133.513" font-family="Arial">+Categorie : enum</text><text x="39.955" y="761.639" fill="#000" font-size="14" textLength="75.305" font-family="Arial">+Tarif : int</text><line x1="34.955" y1="768.941" x2="189.581" y2="768.941" style="stroke:#181818;stroke-width:0.5;"/></g><!--class Notification--><g class="entity" data-qualified-name="Notification" id="ent0005" data-source-line="41"><rect x="225.825" y="704.487" width="138.896" height="64.297" fill="#F1F1F1" style="stroke:#181818;stroke-width:0.5;" rx="4" ry="4"/><ellipse cx="252.78" cy="720.487" rx="11" ry="11" fill="#ADD1B2" style="stroke:#181818;stroke-width:1;"/><path d="M255.748,726.127 Q255.17,726.424 254.53,726.565 Q253.889,726.721 253.186,726.721 Q250.686,726.721 249.358,725.081 Q248.045,723.424 248.045,720.299 Q248.045,717.174 249.358,715.518 Q250.686,713.862 253.186,713.862 Q253.889,713.862 254.53,714.018 Q255.186,714.174 255.748,714.471 L255.748,717.19 Q255.123,716.612 254.53,716.346 Q253.936,716.065 253.311,716.065 Q251.967,716.065 251.28,717.143 Q250.592,718.206 250.592,720.299 Q250.592,722.393 251.28,723.471 Q251.967,724.534 253.311,724.534 Q253.936,724.534 254.53,724.268 Q255.123,723.987 255.748,723.409 L255.748,726.127 Z " fill="#000"/><text x="269.436" y="725.334" fill="#000" font-size="14" textLength="80.329" font-family="Arial">Notification</text><line x1="226.825" y1="736.487" x2="363.72" y2="736.487" style="stroke:#181818;stroke-width:0.5;"/><text x="231.825" y="753.482" fill="#000" font-size="14" textLength="126.896" font-family="Arial">+Message : string</text><line x1="226.825" y1="760.784" x2="363.72" y2="760.784" style="stroke:#181818;stroke-width:0.5;"/></g><!--link Client to Administrateur--><g class="link" data-entity-1="ent0001" data-entity-2="ent0002" id="lnk6" data-source-line="45" data-link-type="dependency"><path d="M145.215,190.367 C139.675,199.947 134.815,209.957 131.265,220.077 C126.135,234.727 124.079,246.274 123.229,261.734" style="stroke:#181818;stroke-width:1;" fill="none" id="Client-to-Administrateur" codeLine="45"/><polygon points="122.955,266.727,127.443,257.96,123.229,261.734,119.455,257.521,122.955,266.727" fill="#181818" style="stroke:#181818;stroke-width:1;stroke-linejoin:miter;stroke-miterlimit:10;"/><text x="132.265" y="233.144" fill="#000" font-size="13" textLength="122.129" font-family="Arial">Appel d'annulation</text></g><!--link Client to Reservation--><g class="link" data-entity-1="ent0001" data-entity-2="ent0003" id="lnk7" data-source-line="46" data-link-type="dependency"><path d="M248.565,190.377 C252.945,200.067 256.705,210.107 259.265,220.077 C279.705,299.707 259.818,387.754 237.808,452.324" style="stroke:#181818;stroke-width:1;" fill="none" id="Client-to-Reservation" codeLine="46"/><polygon points="236.195,457.057,242.885,449.829,237.808,452.324,235.312,447.248,236.195,457.057" fill="#181818" style="stroke:#181818;stroke-width:1;stroke-linejoin:miter;stroke-miterlimit:10;"/><text x="268.265" y="328.234" fill="#000" font-size="13" textLength="32.57" font-family="Arial">avoir</text></g><!--link Administrateur to Reservation--><g class="link" data-entity-1="ent0002" data-entity-2="ent0003" id="lnk8" data-source-line="47" data-link-type="dependency"><path d="M145.765,380.537 C154.335,403.917 162.742,426.843 172.092,452.323" style="stroke:#181818;stroke-width:1;" fill="none" id="Administrateur-to-Reservation" codeLine="47"/><polygon points="173.815,457.017,174.469,447.19,172.092,452.323,166.959,449.946,173.815,457.017" fill="#181818" style="stroke:#181818;stroke-width:1;stroke-linejoin:miter;stroke-miterlimit:10;"/><text x="163.265" y="423.334" fill="#000" font-size="13" textLength="49.639" font-family="Arial">annuler</text></g><!--link Reservation to Notification--><g class="link" data-entity-1="ent0003" data-entity-2="ent0005" id="lnk9" data-source-line="48" data-link-type="dependency"><path d="M240.955,619.727 C254.845,649.377 267.663,676.739 278.353,699.549" style="stroke:#181818;stroke-width:1;" fill="none" id="Reservation-to-Notification" codeLine="48"/><polygon points="280.475,704.077,280.277,694.23,278.353,699.549,273.033,697.625,280.475,704.077" fill="#181818" style="stroke:#181818;stroke-width:1;stroke-linejoin:miter;stroke-miterlimit:10;"/><text x="260.265" y="662.414" fill="#000" font-size="13" textLength="37.051" font-family="Arial">induit</text></g><!--link Reservation to TypeDePassager--><g class="link" data-entity-1="ent0003" data-entity-2="ent0004" id="lnk10" data-source-line="49" data-link-type="dependency"><path d="M165.995,619.727 C153.815,645.987 142.938,669.471 132.778,691.381" style="stroke:#181818;stroke-width:1;" fill="none" id="Reservation-to-TypeDePassager" codeLine="49"/><polygon points="130.675,695.917,138.09,689.435,132.778,691.381,130.832,686.069,130.675,695.917" fill="#181818" style="stroke:#181818;stroke-width:1;stroke-linejoin:miter;stroke-miterlimit:10;"/><text x="151.265" y="662.414" fill="#000" font-size="13" textLength="55.313" font-family="Arial">Contient</text></g><?plantuml-src RLDHQjmm4FttAORyR4jOw6VPZuAxIscWCI791IRMU3DKbinO2cr3eOVe9NAEtAGdwKWs6zd9d_tUcz5xCrBWO0aEZ4V1lYSm1At5SQGHTb0x5oq6zWx-_VaBjxpvZ9ROKLMDtzaDg3NGU-VRU_5QtA4TgQ34HsTQBuu4FXPuFg4EGVWk1hfelRlXNmGV2ecX3gCDNxmB3MhhMXXjLULAEDjR9XVE04UOFk6n0ZY7nlTgUzJ6xfY1Ao6tnceZf06tFR9TCatidv_4Gw0LSKqTQQUMz6iaUPXcKaYssrcNM9AzYWdZk_VLxvFdslJiM2imK9JiVGdD6IwCvk6EKLFj8FmSACENFgJb36at9NxjRV4_-yYB8odCBgmKUFPHXdfS1PQt0v_3DwQO79dd9rrPM987JRGaZIAP-gfHLnovs6Vk9c282-HMSu7Pq8ysoZXvE77DtTHeiDYc6R0BHSYfSfeO7ccQU08FT3L3SzYzMZjwOLeSZCBTgwQDJwjfNqPN0dExIyhTNmQYvVCjtMu_hPUkhsmOzBwP3PvUMobVNZXyy2pLgiKRicd_LOacrS9jocOYXrUgrP1siDTNc0pz1m00?></g></svg>