<svg xmlns="http://www.w3.org/2000/svg" xmlns:xlink="http://www.w3.org/1999/xlink" version="1.1" data-diagram-type="SEQUENCE" style="width:1405px;height:1526px;background:#FFFFFF;" width="1405px" height="1526px" viewBox="0 0 1405 1526" zoomAndPan="magnify" preserveAspectRatio="none" contentStyleType="text/css"><?plantuml 1.2026.7beta11?><defs/><g font-family="sans-serif" lengthAdjust="spacing"><g class="title" data-source-line="1"><text x="393.678" y="27.995" fill="#000" font-size="14" textLength="616.52" font-weight="700">Admin — Réduction du nombre de passagers (suppression partielle de billets)</text><text x="593.411" y="44.292" fill="#000" font-size="14" textLength="217.055" font-weight="700">(SPEC-ADMIN-03 — CDC v5)</text></g><rect x="210.647" y="504.016" width="975.491" height="754.711" fill="none" style="stroke:#000;stroke-width:1.5;"/><g><title>Client</title><rect x="30.979" y="139.891" width="8" height="1299.031" fill="#000" fill-opacity="0"/><line x1="34.479" y1="139.891" x2="34.479" y2="1438.922" style="stroke:#181818;stroke-width:0.5;stroke-dasharray:5,5;"/></g><g><title>Administrateur</title><rect x="278.449" y="139.891" width="8" height="1299.031" fill="#000" fill-opacity="0"/><line x1="281.949" y1="139.891" x2="281.949" y2="1438.922" style="stroke:#181818;stroke-width:0.5;stroke-dasharray:5,5;"/></g><g><title>Back-office</title><rect x="556.813" y="139.891" width="8" height="1299.031" fill="#000" fill-opacity="0"/><line x1="560.313" y1="139.891" x2="560.313" y2="1438.922" style="stroke:#181818;stroke-width:0.5;stroke-dasharray:5,5;"/></g><g><title>Application</title><rect x="805.331" y="139.891" width="8" height="1299.031" fill="#000" fill-opacity="0"/><line x1="808.831" y1="139.891" x2="808.831" y2="1438.922" style="stroke:#181818;stroke-width:0.5;stroke-dasharray:5,5;"/></g><g><title>Base de donn.es</title><rect x="1079.721" y="139.891" width="8" height="1299.031" fill="#000" fill-opacity="0"/><line x1="1083.221" y1="139.891" x2="1083.221" y2="1438.922" style="stroke:#181818;stroke-width:0.5;stroke-dasharray:5,5;"/></g><text x="11.213" y="136.589" fill="#000" font-size="14" textLength="40.53">Client</text><ellipse cx="34.479" cy="72.094" rx="8" ry="8" fill="#E2E2F0" style="stroke:#181818;stroke-width:0.5;"/><path d="M34.479,80.094 L34.479,107.094 M21.479,88.094 L47.479,88.094 M34.479,107.094 L21.479,122.094 M34.479,107.094 L47.479,122.094" style="stroke:#181818;stroke-width:0.5;" fill="none"/><text x="226.647" y="136.589" fill="#000" font-size="14" textLength="104.604">Administrateur</text><ellipse cx="281.949" cy="72.094" rx="8" ry="8" fill="#E2E2F0" style="stroke:#181818;stroke-width:0.5;"/><path d="M281.949,80.094 L281.949,107.094 M268.949,88.094 L294.949,88.094 M281.949,107.094 L268.949,122.094 M281.949,107.094 L294.949,122.094" style="stroke:#181818;stroke-width:0.5;" fill="none"/><rect x="514.481" y="92.297" width="91.663" height="46.594" fill="#E2E2F0" style="stroke:#181818;stroke-width:0.5;" rx="2.5" ry="2.5"/><text x="521.481" y="112.292" fill="#000" font-size="14" textLength="77.663">Back-office</text><text x="526.93" y="128.589" fill="#000" font-size="14" textLength="66.767">(desktop)</text><rect x="762.719" y="92.297" width="92.224" height="46.594" fill="#E2E2F0" style="stroke:#181818;stroke-width:0.5;" rx="2.5" ry="2.5"/><text x="769.719" y="112.292" fill="#000" font-size="14" textLength="78.224">Application</text><text x="771.021" y="128.589" fill="#000" font-size="14" textLength="75.619">(back-end)</text><text x="1020.116" y="136.589" fill="#000" font-size="14" textLength="120.21">Base de données</text><path d="M1065.221,87.594 C1065.221,77.594 1083.221,77.594 1083.221,77.594 C1083.221,77.594 1101.221,77.594 1101.221,87.594 L1101.221,113.594 C1101.221,123.594 1083.221,123.594 1083.221,123.594 C1083.221,123.594 1065.221,123.594 1065.221,113.594 L1065.221,87.594" style="stroke:#181818;stroke-width:0.5;" fill="#E2E2F0"/><path d="M1065.221,87.594 C1065.221,97.594 1083.221,97.594 1083.221,97.594 C1083.221,97.594 1101.221,97.594 1101.221,87.594" style="stroke:#181818;stroke-width:0.5;" fill="none"/><text x="11.213" y="1451.917" fill="#000" font-size="14" textLength="40.53">Client</text><ellipse cx="34.479" cy="1463.719" rx="8" ry="8" fill="#E2E2F0" style="stroke:#181818;stroke-width:0.5;"/><path d="M34.479,1471.719 L34.479,1498.719 M21.479,1479.719 L47.479,1479.719 M34.479,1498.719 L21.479,1513.719 M34.479,1498.719 L47.479,1513.719" style="stroke:#181818;stroke-width:0.5;" fill="none"/><text x="226.647" y="1451.917" fill="#000" font-size="14" textLength="104.604">Administrateur</text><ellipse cx="281.949" cy="1463.719" rx="8" ry="8" fill="#E2E2F0" style="stroke:#181818;stroke-width:0.5;"/><path d="M281.949,1471.719 L281.949,1498.719 M268.949,1479.719 L294.949,1479.719 M281.949,1498.719 L268.949,1513.719 M281.949,1498.719 L294.949,1513.719" style="stroke:#181818;stroke-width:0.5;" fill="none"/><rect x="514.481" y="1438.922" width="91.663" height="46.594" fill="#E2E2F0" style="stroke:#181818;stroke-width:0.5;" rx="2.5" ry="2.5"/><text x="521.481" y="1458.917" fill="#000" font-size="14" textLength="77.663">Back-office</text><text x="526.93" y="1475.214" fill="#000" font-size="14" textLength="66.767">(desktop)</text><rect x="762.719" y="1438.922" width="92.224" height="46.594" fill="#E2E2F0" style="stroke:#181818;stroke-width:0.5;" rx="2.5" ry="2.5"/><text x="769.719" y="1458.917" fill="#000" font-size="14" textLength="78.224">Application</text><text x="771.021" y="1475.214" fill="#000" font-size="14" textLength="75.619">(back-end)</text><text x="1020.116" y="1451.917" fill="#000" font-size="14" textLength="120.21">Base de données</text><path d="M1065.221,1465.219 C1065.221,1455.219 1083.221,1455.219 1083.221,1455.219 C1083.221,1455.219 1101.221,1455.219 1101.221,1465.219 L1101.221,1491.219 C1101.221,1501.219 1083.221,1501.219 1083.221,1501.219 C1083.221,1501.219 1065.221,1501.219 1065.221,1491.219 L1065.221,1465.219" style="stroke:#181818;stroke-width:0.5;" fill="#E2E2F0"/><path d="M1065.221,1465.219 C1065.221,1475.219 1083.221,1475.219 1083.221,1475.219 C1083.221,1475.219 1101.221,1475.219 1101.221,1465.219" style="stroke:#181818;stroke-width:0.5;" fill="none"/><path d="M-3.707,152.891 L-3.707,237.891 L1121.293,237.891 L1121.293,162.891 L1111.293,152.891 L-3.707,152.891" style="stroke:#181818;stroke-width:0.5;" fill="#FEFFDD"/><path d="M1111.293,152.891 L1111.293,162.891 L1121.293,162.891 L1111.293,152.891" style="stroke:#181818;stroke-width:0.5;" fill="#FEFFDD"/><text x="303.033" y="169.958" fill="#000" font-size="13" textLength="253.919">Pré-requis : administrateur connecté →</text><a target="_top" href="admin-login.svg" xlink:href="admin-login.svg" xlink:type="simple" xlink:actuate="onRequest" xlink:show="new" title="admin-login.svg" xlink:title="admin-login.svg"><text x="303.033" y="185.09" fill="#00F" font-size="13" textLength="186.266" text-decoration="underline">Connexion (SPEC-ADMIN-04)</text></a><text x="489.299" y="185.09" fill="#000" font-size="13">.</text><text x="303.033" y="200.223" fill="#000" font-size="13" textLength="40.162">Spec :</text><a target="_top" href="../../../specs/admin.md" xlink:href="../../../specs/admin.md" xlink:type="simple" xlink:actuate="onRequest" xlink:show="new" title="../../../specs/admin.md" xlink:title="../../../specs/admin.md"><text x="347.327" y="200.223" fill="#00F" font-size="13" textLength="102.984" text-decoration="underline">SPEC-ADMIN-03</text></a><text x="454.444" y="200.223" fill="#000" font-size="13" textLength="99.766">(v4 — CDC v5).</text><text x="303.033" y="215.356" fill="#000" font-size="13" textLength="502.633">Modification exclusivement à la baisse et réservée à l'administrateur (R-18) :</text><text x="303.033" y="230.489" fill="#000" font-size="13" textLength="384.998">ni ajout de billet, ni report de date, ni changement de port.</text><polygon points="269.949,275.82,279.949,279.82,269.949,283.82,273.949,279.82" fill="#181818" style="stroke:#181818;stroke-width:1;stroke-linejoin:miter;stroke-miterlimit:10;"/><line x1="34.479" y1="279.82" x2="275.949" y2="279.82" style="stroke:#181818;stroke-width:1;"/><text x="46.479" y="267.188" fill="#000" font-size="13" font-weight="700">1</text><text x="59.524" y="259.622" fill="#000" font-size="13" textLength="37.007">Appel</text><text x="96.531" y="259.622" fill="#000" font-size="13"> </text><text x="100.663" y="259.622" fill="#000" font-size="13" textLength="85.49">téléphonique</text><text x="186.153" y="259.622" fill="#000" font-size="13"> </text><text x="190.286" y="259.622" fill="#000" font-size="13">—</text><text x="203.286" y="259.622" fill="#000" font-size="13"> </text><text x="207.418" y="259.622" fill="#000" font-size="13" textLength="46.789">réduire</text><text x="254.207" y="259.622" fill="#000" font-size="13"> </text><text x="258.339" y="259.622" fill="#000" font-size="13" textLength="11.61">le</text><text x="94.204" y="274.754" fill="#000" font-size="13" textLength="50.451">nombre</text><text x="144.656" y="274.754" fill="#000" font-size="13"> </text><text x="148.788" y="274.754" fill="#000" font-size="13" textLength="16.25">de</text><text x="165.038" y="274.754" fill="#000" font-size="13"> </text><text x="169.17" y="274.754" fill="#000" font-size="13" textLength="66.098">passagers</text><path d="M0.195,292.82 L0.195,317.82 L316.195,317.82 L316.195,302.82 L306.195,292.82 L0.195,292.82" style="stroke:#181818;stroke-width:0.5;" fill="#FEFFDD"/><path d="M306.195,292.82 L306.195,302.82 L316.195,302.82 L306.195,292.82" style="stroke:#181818;stroke-width:0.5;" fill="#FEFFDD"/><text x="21" y="309.887" fill="#000" font-size="13" textLength="265.427">Hors application (échange téléphonique)</text><polygon points="548.313,370.352,558.313,374.352,548.313,378.352,552.313,374.352" fill="#181818" style="stroke:#181818;stroke-width:1;stroke-linejoin:miter;stroke-miterlimit:10;"/><line x1="281.949" y1="374.352" x2="554.313" y2="374.352" style="stroke:#181818;stroke-width:1;"/><text x="299.909" y="354.153" fill="#000" font-size="13" font-weight="700">2</text><text x="312.955" y="339.02" fill="#000" font-size="13" textLength="39.508">Ouvre</text><text x="352.462" y="339.02" fill="#000" font-size="13"> </text><text x="356.595" y="339.02" fill="#000" font-size="13" textLength="11.578">la</text><text x="368.173" y="339.02" fill="#000" font-size="13"> </text><text x="372.305" y="339.02" fill="#000" font-size="13" textLength="74.02">réservation</text><text x="446.325" y="339.02" fill="#000" font-size="13"> </text><text x="450.458" y="339.02" fill="#000" font-size="13" textLength="13.095">et</text><text x="463.553" y="339.02" fill="#000" font-size="13"> </text><text x="467.685" y="339.02" fill="#000" font-size="13" textLength="74.667">sélectionne</text><text x="372.762" y="354.153" fill="#000" font-size="13">N</text><text x="382.487" y="354.153" fill="#000" font-size="13"> </text><text x="386.619" y="354.153" fill="#000" font-size="13" textLength="38.956">billets</text><text x="425.575" y="354.153" fill="#000" font-size="13"> </text><text x="429.707" y="354.153" fill="#000" font-size="13">à</text><text x="437.673" y="354.153" fill="#000" font-size="13"> </text><text x="441.806" y="354.153" fill="#000" font-size="13" textLength="40.739">retirer</text><text x="353.202" y="369.286" fill="#000" font-size="13" textLength="53.009">(adultes</text><text x="406.211" y="369.286" fill="#000" font-size="13"> </text><text x="410.344" y="369.286" fill="#000" font-size="13" textLength="33.668">et/ou</text><text x="444.011" y="369.286" fill="#000" font-size="13"> </text><text x="448.144" y="369.286" fill="#000" font-size="13" textLength="53.961">enfants)</text><polygon points="796.831,414.617,806.831,418.617,796.831,422.617,800.831,418.617" fill="#181818" style="stroke:#181818;stroke-width:1;stroke-linejoin:miter;stroke-miterlimit:10;"/><line x1="560.313" y1="418.617" x2="802.831" y2="418.617" style="stroke:#181818;stroke-width:1;"/><text x="573.909" y="405.985" fill="#000" font-size="13" font-weight="700">3</text><text x="591.049" y="398.418" fill="#000" font-size="13" textLength="63.127">Demande</text><text x="654.177" y="398.418" fill="#000" font-size="13"> </text><text x="658.309" y="398.418" fill="#000" font-size="13" textLength="16.25">de</text><text x="674.559" y="398.418" fill="#000" font-size="13"> </text><text x="678.691" y="398.418" fill="#000" font-size="13" textLength="78.209">suppression</text><text x="756.901" y="398.418" fill="#000" font-size="13"> </text><text x="761.033" y="398.418" fill="#000" font-size="13" textLength="16.25">de</text><text x="777.283" y="398.418" fill="#000" font-size="13"> </text><text x="781.415" y="398.418" fill="#000" font-size="13">N</text><text x="586.955" y="413.551" fill="#000" font-size="13" textLength="38.956">billets</text><text x="625.91" y="413.551" fill="#000" font-size="13"> </text><text x="630.043" y="413.551" fill="#000" font-size="13" textLength="75.505">(identifiant,</text><text x="705.548" y="413.551" fill="#000" font-size="13"> </text><text x="709.68" y="413.551" fill="#000" font-size="13" textLength="38.956">billets</text><text x="748.636" y="413.551" fill="#000" font-size="13"> </text><text x="752.768" y="413.551" fill="#000" font-size="13" textLength="42.466">ciblés)</text><polygon points="1071.221,443.75,1081.221,447.75,1071.221,451.75,1075.221,447.75" fill="#181818" style="stroke:#181818;stroke-width:1;stroke-linejoin:miter;stroke-miterlimit:10;"/><line x1="808.831" y1="447.75" x2="1077.221" y2="447.75" style="stroke:#181818;stroke-width:1;"/><text x="834.056" y="442.684" fill="#000" font-size="13" font-weight="700">4</text><text x="847.101" y="442.684" fill="#000" font-size="13" textLength="15.952">Lit</text><text x="863.053" y="442.684" fill="#000" font-size="13"> </text><text x="867.185" y="442.684" fill="#000" font-size="13" textLength="18.383">les</text><text x="885.568" y="442.684" fill="#000" font-size="13"> </text><text x="889.7" y="442.684" fill="#000" font-size="13" textLength="38.956">billets</text><text x="928.656" y="442.684" fill="#000" font-size="13"> </text><text x="932.788" y="442.684" fill="#000" font-size="13" textLength="35.172">actifs</text><text x="967.961" y="442.684" fill="#000" font-size="13"> </text><text x="972.093" y="442.684" fill="#000" font-size="13" textLength="13.095">et</text><text x="985.188" y="442.684" fill="#000" font-size="13"> </text><text x="989.321" y="442.684" fill="#000" font-size="13" textLength="11.61">le</text><text x="1000.93" y="442.684" fill="#000" font-size="13"> </text><text x="1005.063" y="442.684" fill="#000" font-size="13" textLength="52.933">créneau</text><polygon points="819.831,488.016,809.831,492.016,819.831,496.016,815.831,492.016" fill="#181818" style="stroke:#181818;stroke-width:1;stroke-linejoin:miter;stroke-miterlimit:10;"/><line x1="813.831" y1="492.016" x2="1082.221" y2="492.016" style="stroke:#181818;stroke-width:1;stroke-dasharray:2,2;"/><text x="840.261" y="479.383" fill="#000" font-size="13" font-weight="700">5</text><text x="853.306" y="471.817" fill="#000" font-size="13" textLength="39.622">Billets</text><text x="892.928" y="471.817" fill="#000" font-size="13"> </text><text x="897.061" y="471.817" fill="#000" font-size="13" textLength="35.172">actifs</text><text x="932.233" y="471.817" fill="#000" font-size="13"> </text><text x="936.365" y="471.817" fill="#000" font-size="13">+</text><text x="947.258" y="471.817" fill="#000" font-size="13"> </text><text x="951.39" y="471.817" fill="#000" font-size="13" textLength="29.313">date</text><text x="980.704" y="471.817" fill="#000" font-size="13"> </text><text x="984.836" y="471.817" fill="#000" font-size="13">/</text><text x="989.216" y="471.817" fill="#000" font-size="13"> </text><text x="993.348" y="471.817" fill="#000" font-size="13" textLength="37.819">heure</text><text x="1031.167" y="471.817" fill="#000" font-size="13"> </text><text x="1035.3" y="471.817" fill="#000" font-size="13" textLength="16.491">du</text><text x="926.082" y="486.95" fill="#000" font-size="13" textLength="52.933">créneau</text><path d="M210.647,504.016 L275.09,504.016 L275.09,511.148 L265.09,521.148 L210.647,521.148 L210.647,504.016" style="stroke:#000;stroke-width:1.5;" fill="#EEE"/><rect x="210.647" y="504.016" width="975.491" height="754.711" fill="none" style="stroke:#000;stroke-width:1.5;"/><text x="225.647" y="517.083" fill="#000" font-size="13" textLength="19.443" font-weight="700">alt</text><text x="290.09" y="516.226" fill="#000" font-size="11" textLength="486.353" font-weight="700">[Tentative d'ajout de billet ou de changement de date / port (cas limites 1, 4)]</text><polygon points="571.313,548.281,561.313,552.281,571.313,556.281,567.313,552.281" fill="#181818" style="stroke:#181818;stroke-width:1;stroke-linejoin:miter;stroke-miterlimit:10;"/><line x1="565.313" y1="552.281" x2="807.831" y2="552.281" style="stroke:#181818;stroke-width:1;stroke-dasharray:2,2;"/><text x="620.308" y="547.215" fill="#000" font-size="13" font-weight="700">6</text><text x="633.353" y="547.215" fill="#000" font-size="13" textLength="33.738">Rejet</text><text x="667.091" y="547.215" fill="#000" font-size="13"> </text><text x="671.223" y="547.215" fill="#000" font-size="13" textLength="33.071">strict</text><text x="704.294" y="547.215" fill="#000" font-size="13"> </text><text x="708.427" y="547.215" fill="#000" font-size="13" textLength="40.409">(R-18)</text><polygon points="292.949,592.547,282.949,596.547,292.949,600.547,288.949,596.547" fill="#181818" style="stroke:#181818;stroke-width:1;stroke-linejoin:miter;stroke-miterlimit:10;"/><line x1="286.949" y1="596.547" x2="559.313" y2="596.547" style="stroke:#181818;stroke-width:1;stroke-dasharray:2,2;"/><text x="313.617" y="583.915" fill="#000" font-size="13" font-weight="700">7</text><text x="326.662" y="576.348" fill="#000" font-size="13" textLength="56.977">Message</text><text x="383.639" y="576.348" fill="#000" font-size="13"> </text><text x="387.771" y="576.348" fill="#000" font-size="13">:</text><text x="392.151" y="576.348" fill="#000" font-size="13"> </text><text x="396.283" y="576.348" fill="#000" font-size="13" textLength="55.345">nouvelle</text><text x="451.629" y="576.348" fill="#000" font-size="13"> </text><text x="455.761" y="576.348" fill="#000" font-size="13" textLength="72.884">commande</text><text x="403.545" y="591.481" fill="#000" font-size="13" textLength="48.217">requise</text><line x1="210.647" y1="605.547" x2="1186.138" y2="605.547" style="stroke:#000;stroke-width:1;stroke-dasharray:2,2;"/><text x="215.647" y="617.757" fill="#000" font-size="11" textLength="290.023" font-weight="700">[Réservation déjà à 0 billet actif (cas limite 3)]</text><polygon points="571.313,640.484,561.313,644.484,571.313,648.484,567.313,644.484" fill="#181818" style="stroke:#181818;stroke-width:1;stroke-linejoin:miter;stroke-miterlimit:10;"/><line x1="565.313" y1="644.484" x2="807.831" y2="644.484" style="stroke:#181818;stroke-width:1;stroke-dasharray:2,2;"/><text x="585.262" y="639.418" fill="#000" font-size="13" font-weight="700">8</text><text x="598.308" y="639.418" fill="#000" font-size="13" textLength="48.756">Aucune</text><text x="647.064" y="639.418" fill="#000" font-size="13"> </text><text x="651.196" y="639.418" fill="#000" font-size="13" textLength="61.883">réduction</text><text x="713.08" y="639.418" fill="#000" font-size="13"> </text><text x="717.212" y="639.418" fill="#000" font-size="13" textLength="66.669">applicable</text><polygon points="292.949,669.617,282.949,673.617,292.949,677.617,288.949,673.617" fill="#181818" style="stroke:#181818;stroke-width:1;stroke-linejoin:miter;stroke-miterlimit:10;"/><line x1="286.949" y1="673.617" x2="559.313" y2="673.617" style="stroke:#181818;stroke-width:1;stroke-dasharray:2,2;"/><text x="352.868" y="668.551" fill="#000" font-size="13" font-weight="700">9</text><text x="365.913" y="668.551" fill="#000" font-size="13" textLength="40.942">Action</text><text x="406.855" y="668.551" fill="#000" font-size="13"> </text><text x="410.988" y="668.551" fill="#000" font-size="13" textLength="78.406">indisponible</text><line x1="210.647" y1="682.617" x2="1186.138" y2="682.617" style="stroke:#000;stroke-width:1;stroke-dasharray:2,2;"/><text x="215.647" y="694.828" fill="#000" font-size="11" textLength="216.777" font-weight="700">[Créneau déjà passé (cas limite 5)]</text><polygon points="571.313,717.555,561.313,721.555,571.313,725.555,567.313,721.555" fill="#181818" style="stroke:#181818;stroke-width:1;stroke-linejoin:miter;stroke-miterlimit:10;"/><line x1="565.313" y1="721.555" x2="807.831" y2="721.555" style="stroke:#181818;stroke-width:1;stroke-dasharray:2,2;"/><text x="608.818" y="716.489" fill="#000" font-size="13" textLength="18.091" font-weight="700">10</text><text x="630.909" y="716.489" fill="#000" font-size="13" textLength="79.238">Modification</text><text x="710.147" y="716.489" fill="#000" font-size="13"> </text><text x="714.279" y="716.489" fill="#000" font-size="13" textLength="46.046">rejetée</text><polygon points="292.949,746.688,282.949,750.688,292.949,754.688,288.949,750.688" fill="#181818" style="stroke:#181818;stroke-width:1;stroke-linejoin:miter;stroke-miterlimit:10;"/><line x1="286.949" y1="750.688" x2="559.313" y2="750.688" style="stroke:#181818;stroke-width:1;stroke-dasharray:2,2;"/><text x="343.622" y="745.622" fill="#000" font-size="13" textLength="18.091" font-weight="700">11</text><text x="365.713" y="745.622" fill="#000" font-size="13" textLength="75.48">Information</text><text x="441.193" y="745.622" fill="#000" font-size="13"> </text><text x="445.325" y="745.622" fill="#000" font-size="13" textLength="16.25">de</text><text x="461.575" y="745.622" fill="#000" font-size="13"> </text><text x="465.708" y="745.622" fill="#000" font-size="13" textLength="32.932">refus</text><line x1="210.647" y1="759.688" x2="1186.138" y2="759.688" style="stroke:#000;stroke-width:1;stroke-dasharray:2,2;"/><text x="215.647" y="771.898" fill="#000" font-size="11" textLength="323.678" font-weight="700">[Réduction partielle autorisée (billets restants > 0)]</text><polygon points="1071.221,840.023,1081.221,844.023,1071.221,848.023,1075.221,844.023" fill="#181818" style="stroke:#181818;stroke-width:1;stroke-linejoin:miter;stroke-miterlimit:10;"/><line x1="808.831" y1="844.023" x2="1077.221" y2="844.023" style="stroke:#181818;stroke-width:1;"/><text x="820.831" y="816.258" fill="#000" font-size="13" textLength="18.091" font-weight="700">12</text><text x="886.035" y="793.559" fill="#000" font-size="13" textLength="62.613">Supprime</text><text x="948.648" y="793.559" fill="#000" font-size="13"> </text><text x="952.78" y="793.559" fill="#000" font-size="13" textLength="18.383">les</text><text x="971.163" y="793.559" fill="#000" font-size="13"> </text><text x="975.295" y="793.559" fill="#000" font-size="13">N</text><text x="985.02" y="793.559" fill="#000" font-size="13"> </text><text x="989.152" y="793.559" fill="#000" font-size="13" textLength="38.956">billets</text><text x="898.251" y="808.692" fill="#000" font-size="13" textLength="117.641">(BOOKING_ITEMS)</text><text x="842.921" y="823.825" fill="#000" font-size="13">—</text><text x="855.921" y="823.825" fill="#000" font-size="13"> </text><text x="860.054" y="823.825" fill="#000" font-size="13" textLength="73.436">transaction</text><text x="933.49" y="823.825" fill="#000" font-size="13"> </text><text x="937.622" y="823.825" fill="#000" font-size="13" textLength="61.782">atomique</text><text x="999.404" y="823.825" fill="#000" font-size="13"> </text><text x="1003.536" y="823.825" fill="#000" font-size="13" textLength="26.958">(cas</text><text x="1030.495" y="823.825" fill="#000" font-size="13"> </text><text x="1034.627" y="823.825" fill="#000" font-size="13" textLength="36.594">limite</text><text x="950.4" y="838.958" fill="#000" font-size="13" textLength="13.343">6)</text><polygon points="819.831,884.289,809.831,888.289,819.831,892.289,815.831,888.289" fill="#181818" style="stroke:#181818;stroke-width:1;stroke-linejoin:miter;stroke-miterlimit:10;"/><line x1="813.831" y1="888.289" x2="1082.221" y2="888.289" style="stroke:#181818;stroke-width:1;stroke-dasharray:2,2;"/><text x="837.008" y="875.657" fill="#000" font-size="13" textLength="18.091" font-weight="700">13</text><text x="859.098" y="868.09" fill="#000" font-size="13">N</text><text x="868.823" y="868.09" fill="#000" font-size="13"> </text><text x="872.955" y="868.09" fill="#000" font-size="13" textLength="41.749">places</text><text x="914.704" y="868.09" fill="#000" font-size="13"> </text><text x="918.836" y="868.09" fill="#000" font-size="13" textLength="51.587">libérées</text><text x="970.424" y="868.09" fill="#000" font-size="13"> </text><text x="974.556" y="868.09" fill="#000" font-size="13" textLength="13.095">et</text><text x="987.651" y="868.09" fill="#000" font-size="13"> </text><text x="991.783" y="868.09" fill="#000" font-size="13" textLength="51.162">remises</text><text x="1042.946" y="868.09" fill="#000" font-size="13"> </text><text x="1047.078" y="868.09" fill="#000" font-size="13">à</text><text x="922.007" y="883.223" fill="#000" font-size="13" textLength="70.129">disposition</text><polygon points="571.313,928.555,561.313,932.555,571.313,936.555,567.313,932.555" fill="#181818" style="stroke:#181818;stroke-width:1;stroke-linejoin:miter;stroke-miterlimit:10;"/><line x1="565.313" y1="932.555" x2="807.831" y2="932.555" style="stroke:#181818;stroke-width:1;stroke-dasharray:2,2;"/><text x="572.313" y="919.922" fill="#000" font-size="13" textLength="18.091" font-weight="700">14</text><text x="594.404" y="912.356" fill="#000" font-size="13" textLength="77.708">Réservation</text><text x="672.112" y="912.356" fill="#000" font-size="13"> </text><text x="676.244" y="912.356" fill="#000" font-size="13" textLength="31.046">mise</text><text x="707.291" y="912.356" fill="#000" font-size="13"> </text><text x="711.423" y="912.356" fill="#000" font-size="13">à</text><text x="719.389" y="912.356" fill="#000" font-size="13"> </text><text x="723.521" y="912.356" fill="#000" font-size="13" textLength="25.149">jour</text><text x="748.671" y="912.356" fill="#000" font-size="13"> </text><text x="752.803" y="912.356" fill="#000" font-size="13" textLength="44.027">(billets</text><text x="666.437" y="927.489" fill="#000" font-size="13" textLength="58.36">restants)</text><polygon points="292.949,957.688,282.949,961.688,292.949,965.688,288.949,961.688" fill="#181818" style="stroke:#181818;stroke-width:1;stroke-linejoin:miter;stroke-miterlimit:10;"/><line x1="286.949" y1="961.688" x2="559.313" y2="961.688" style="stroke:#181818;stroke-width:1;stroke-dasharray:2,2;"/><text x="367.918" y="956.622" fill="#000" font-size="13" textLength="18.091" font-weight="700">15</text><text x="390.009" y="956.622" fill="#000" font-size="13" textLength="84.335">Confirmation</text><line x1="210.647" y1="970.688" x2="1186.138" y2="970.688" style="stroke:#000;stroke-width:1;stroke-dasharray:2,2;"/><text x="215.647" y="982.898" fill="#000" font-size="11" textLength="372.432" font-weight="700">[Réduction ramenant le nombre de billets à 0 (cas limite 2)]</text><path d="M726.913,993.492 L726.913,1033.492 L1164.913,1033.492 L1164.913,1003.492 L1154.913,993.492 L726.913,993.492" style="stroke:#181818;stroke-width:0.5;" fill="#FEFFDD"/><path d="M1154.913,993.492 L1154.913,1003.492 L1164.913,1003.492 L1154.913,993.492" style="stroke:#181818;stroke-width:0.5;" fill="#FEFFDD"/><text x="732.913" y="1010.559" fill="#000" font-size="13" textLength="417.225">Traitement unifié : bascule sur la logique complète d'annulation</text><text x="732.913" y="1025.692" fill="#000" font-size="13" textLength="342.951">(même fonction back-end de suppression de billets).</text><polygon points="571.313,1101.289,561.313,1105.289,571.313,1109.289,567.313,1105.289" fill="#181818" style="stroke:#181818;stroke-width:1;stroke-linejoin:miter;stroke-miterlimit:10;"/><line x1="565.313" y1="1105.289" x2="807.831" y2="1105.289" style="stroke:#181818;stroke-width:1;stroke-dasharray:2,2;"/><text x="583.891" y="1077.524" fill="#000" font-size="13" textLength="18.091" font-weight="700">16</text><text x="605.982" y="1054.825" fill="#000" font-size="13" textLength="45.043">Affiche</text><text x="651.025" y="1054.825" fill="#000" font-size="13"> </text><text x="655.157" y="1054.825" fill="#000" font-size="13" textLength="11.61">le</text><text x="666.767" y="1054.825" fill="#000" font-size="13"> </text><text x="670.899" y="1054.825" fill="#000" font-size="13" textLength="37.724">calcul</text><text x="708.624" y="1054.825" fill="#000" font-size="13"> </text><text x="712.756" y="1054.825" fill="#000" font-size="13" textLength="52.114">indicatif</text><text x="764.87" y="1054.825" fill="#000" font-size="13"> </text><text x="769.002" y="1054.825" fill="#000" font-size="13" textLength="16.25">de</text><text x="643.335" y="1069.958" fill="#000" font-size="13" textLength="104.565">remboursement</text><text x="622.381" y="1085.09" fill="#000" font-size="13" textLength="29.002">(vue</text><text x="651.384" y="1085.09" fill="#000" font-size="13"> </text><text x="655.516" y="1085.09" fill="#000" font-size="13" textLength="96.205">administrateur</text><text x="751.721" y="1085.09" fill="#000" font-size="13"> </text><text x="755.853" y="1085.09" fill="#000" font-size="13">—</text><text x="641.589" y="1100.223" fill="#000" font-size="13" textLength="108.056">SPEC-ADMIN-02)</text><polygon points="548.313,1145.555,558.313,1149.555,548.313,1153.555,552.313,1149.555" fill="#181818" style="stroke:#181818;stroke-width:1;stroke-linejoin:miter;stroke-miterlimit:10;"/><line x1="281.949" y1="1149.555" x2="554.313" y2="1149.555" style="stroke:#181818;stroke-width:1;"/><text x="293.949" y="1136.922" fill="#000" font-size="13" textLength="18.091" font-weight="700">17</text><text x="316.04" y="1129.356" fill="#000" font-size="13" textLength="76.146">Sélectionne</text><text x="392.186" y="1129.356" fill="#000" font-size="13"> </text><text x="396.318" y="1129.356" fill="#000" font-size="13" textLength="11.61">le</text><text x="407.928" y="1129.356" fill="#000" font-size="13"> </text><text x="412.061" y="1129.356" fill="#000" font-size="13" textLength="33.903">motif</text><text x="445.963" y="1129.356" fill="#000" font-size="13"> </text><text x="450.096" y="1129.356" fill="#000" font-size="13" textLength="80.99">d'annulation</text><text x="531.085" y="1129.356" fill="#000" font-size="13"> </text><text x="535.218" y="1129.356" fill="#000" font-size="13" textLength="13.095">et</text><text x="412.61" y="1144.489" fill="#000" font-size="13" textLength="39.133">valide</text><polygon points="796.831,1174.688,806.831,1178.688,796.831,1182.688,800.831,1178.688" fill="#181818" style="stroke:#181818;stroke-width:1;stroke-linejoin:miter;stroke-miterlimit:10;"/><line x1="560.313" y1="1178.688" x2="802.831" y2="1178.688" style="stroke:#181818;stroke-width:1;"/><text x="582.625" y="1173.622" fill="#000" font-size="13" textLength="18.091" font-weight="700">18</text><text x="604.716" y="1173.622" fill="#000" font-size="13" textLength="59.465">Confirme</text><text x="664.18" y="1173.622" fill="#000" font-size="13"> </text><text x="668.313" y="1173.622" fill="#000" font-size="13" textLength="76.35">l'annulation</text><text x="744.662" y="1173.622" fill="#000" font-size="13"> </text><text x="748.795" y="1173.622" fill="#000" font-size="13" textLength="37.724">totale</text><rect x="228.647" y="1186.688" width="915.679" height="67.039" fill="none" style="stroke:#000;stroke-width:1.5;"/><path d="M228.647,1186.688 L293.647,1186.688 L293.647,1193.688 L283.647,1203.688 L228.647,1203.688 L228.647,1186.688" style="stroke:#000;stroke-width:2;" fill="#EEE"/><text x="241.647" y="1200.754" fill="#000" font-size="13" textLength="20.884" font-weight="700">ref</text><a target="_top" href="admin-annulation-reservation.svg" xlink:href="admin-annulation-reservation.svg" xlink:type="simple" xlink:actuate="onRequest" xlink:show="new" title="admin-annulation-reservation.svg" xlink:title="admin-annulation-reservation.svg"><text x="545.284" y="1218.826" fill="#00F" font-size="12" textLength="282.404" text-decoration="underline">Annulation d'une réservation (SPEC-ADMIN-02)</text></a><text x="524.791" y="1232.795" fill="#000" font-size="12" textLength="323.391">Suppression des billets restants, libération des places</text><text x="539.504" y="1246.764" fill="#000" font-size="12" textLength="293.965">et SMS informatif au client (sans détail financier)</text><path d="M813.831,1277.727 L813.831,1423.727 L1389.831,1423.727 L1389.831,1287.727 L1379.831,1277.727 L813.831,1277.727" style="stroke:#181818;stroke-width:0.5;" fill="#FEFFDD"/><path d="M1379.831,1277.727 L1379.831,1287.727 L1389.831,1287.727 L1379.831,1277.727" style="stroke:#181818;stroke-width:0.5;" fill="#FEFFDD"/><text x="819.831" y="1294.793" fill="#000" font-size="13" textLength="514.585">SPEC-ADMIN-03 AC-1 suppression sélective de N billets et libération synchrone</text><text x="819.831" y="1309.926" fill="#000" font-size="13" textLength="483.234">(CASE-ADMIN-023, CASE-ADMIN-024, CASE-ADMIN-025, CASE-ADMIN-031,</text><text x="819.831" y="1325.059" fill="#000" font-size="13" textLength="242.087">CASE-ADMIN-032, CASE-ADMIN-069),</text><text x="819.831" y="1340.192" fill="#000" font-size="13" textLength="482.644">AC-2 blocage des ajouts, reports et réservations à 0 billet / créneau passé</text><text x="819.831" y="1355.325" fill="#000" font-size="13" textLength="255.125">(CASE-ADMIN-027 à CASE-ADMIN-030),</text><text x="819.831" y="1370.458" fill="#000" font-size="13" textLength="555.045">AC-3 réduction à 0 billet traitée comme une annulation complète (CASE-ADMIN-026).</text><text x="819.831" y="1385.59" fill="#000" font-size="13" textLength="294.747">Places de nouveau réservables jusqu'à H-2 →</text><a target="_top" href="reservation-1-consultation-a-paiement.svg" xlink:href="reservation-1-consultation-a-paiement.svg" xlink:type="simple" xlink:actuate="onRequest" xlink:show="new" title="reservation-1-consultation-a-paiement.svg" xlink:title="reservation-1-consultation-a-paiement.svg"><text x="819.831" y="1400.723" fill="#00F" font-size="13" textLength="322.582" text-decoration="underline">Interface de réservation (SPEC-RESERVATION-03)</text></a><text x="1142.412" y="1400.723" fill="#000" font-size="13">.</text><text x="819.831" y="1415.856" fill="#000" font-size="13" textLength="377.571">Remboursement de la réduction : hors système (manuel).</text><?plantuml-src RLRDSjis4BxpANPoCJKLvT-ahG-PaILFuqbjPoHFBuwd0u5B2mu9CW2eINhggG_GwGFq6FKrz2Pvakw2e4JQqkX0Wel5jzz-kmkdN8umJWkbuVkV_y1iiqvhwLIf8Qr1byN28AG8bR1MFAAn4DkwgWnQopQLC4vXddkRXQ87PmSVTJp_S3b9njFhgvlawDGxdamdi7ezY2BxIMdQ9Wgm-Bb6BV4QlUznhXurIDGEJSUg45-2mLpzWN1oTXI9sfMwBXPa5mdfIWEl9hcYZQz0M6WUsmy-D6MT4GvhumtyKkIXIrK9xU3LXP2VaZBBb4H2dwBzvCfguAqlRlkcuwhAbHHC4PakU2FgjB6bRr4gd5W8Y-pKUbxIKklD6ctZRZgD8bqwX7A59e0T-cM03sQpJWpHeYoSW-X11qbkKBhD6hx_zJSPtzzxWoGl7vKUsTKZJDZY2-Ubbu2pmSF3Y3RCAvJazlv-D3fi_fPMxA5tCofIw6NjuG7YrLatT-pZkanL5i87_2BpsgeL5XG3RFw5NC12A4jXemEAnQ9PKUJ-qy6pSE9PSlpJ0Cx9gLOWdihQxKGqv3M3LMdy8d6AVaakXNviZcDHqkTHHEm34nf53PcGl0s2FkU4O0x4MRvPLyjIArAS3ycmpXLfcwIxH-LxCjIwV5TI4OYT223Uh1jOpyuPHCqMWdDnInjlwnMV9rfY0eSEB6r3NtCQuQOj8oRDe2ECXdGcqZftQCdyiAm1TKPQj8E877EqLKN-frW8dVeukYMQTdt6AgLWA8E2GsfNfLeGRdB7ZXZkT4h-VbMEsB5RAoeebJ42vanI41f57R5jiiLmqRVzmMSE3c596KVkADjzaSWTt14Oec55dmwUAG0eJ7hf9pnuyxA89LLJhWh5j1mFuMn0IWAF8safd-4Jy-kCaYu8pXinRHsLXFv2JxgiLxwToR9es6og4IFCITMpRkRIpVg9SaJ_enQp3xkB34xte1hNigPCcrsh3N9QvBWFthWnKZfLjY9jiPc7Cmbajb1OljGUkkU_tdD-huODKqGrkk_WAvsLfWZHCXLPRRT4jDXt8u3Rib6M2pvkHKCgT2nLU0j77IYjnkOiL5MW5rf7fXUtj--lRdxv_UhkydfE0uLBbXg7jY8Gvih2rt8trZSXkJr5ta2L2ubijDYi3VTXtvomeApw8lEiMiL-zoYect7UmZj8gUPbY7kbHIqvKu735zJHU4FDGwNNX3hrVzIBxwGvOTUQ26axEVXtPmIP-LgfDMMOf71E_TZAEkUMOBZtyB1WtaZVLRxvvdpbQLtdOXi_G5ni_gESPALkSBP3RazhQMV-o6_TjkANckVPklJjLegS47avimQpHbh5WaYr7ZsrknL1V3OlM0BT0HNOwFVOURULqbb5wG_eXCZ9NucS-k0sNQrKGgwGPzNEtfLEXBga0WZ4yw73eE5s3k_sq0ZVYiOFvl7ENNeGQdydgxWVriF3HptliRphmQtMXa7ERMtQeFAFciARNy-9tL2w6PKbo6OmnfOgY9k54og7J97sf48pu14QBYL6FIwfzsR-AWFz6m6C9ybnJm3jv5fXVypmZEZWir-rN9fICulnP3o_t0PxEeJU-zcpzzVzzzFZ8RdehPpqBTxyF60JGde2YxoKtDQP7ZzTYBRcJc4xznCFqVRQ-E5sJ8MM-WBtZspVmt7KddlQRUnThuxBaviZpnO4ba57Phk2x9_qnfVMXwQ7fTXCA0BMebzmvtogxUVwW0vxHs6tjyEE29FZX6wFbguGpQj8Ag5yhNbvNl6LEwCJV2c-bERiSduv-sryTtNBaORRvAnRihonkTcqaP_3aYzAzgjrcsyKRapZjCPyiBkl_Gy0?></g></svg>