<svg xmlns="http://www.w3.org/2000/svg" xmlns:xlink="http://www.w3.org/1999/xlink" version="1.1" data-diagram-type="SEQUENCE" style="width:1182px;height:1584px;background:#FFFFFF;" width="1182px" height="1584px" viewBox="0 0 1182 1584" zoomAndPan="magnify" preserveAspectRatio="none" contentStyleType="text/css"><?plantuml 1.2026.7beta11?><defs/><g font-family="sans-serif" lengthAdjust="spacing"><g class="title" data-source-line="1"><text x="212.56" y="27.995" fill="#000" font-size="14" textLength="755.146" font-weight="700">Diagramme de séquence — Parcours Entreprise : « Administrer et suivre l'activité » (Ti'Baleine)</text></g><rect x="233.923" y="361.82" width="531.796" height="162.469" fill="none" style="stroke:#000;stroke-width:1.5;"/><g><title>Entreprise</title><rect x="246.423" y="139.891" width="8" height="1341.313" fill="#000" fill-opacity="0"/><line x1="249.923" y1="139.891" x2="249.923" y2="1481.203" style="stroke:#181818;stroke-width:0.5;stroke-dasharray:5,5;"/></g><g><title>Espace d.administration</title><rect x="495.696" y="139.891" width="8" height="1341.313" fill="#000" fill-opacity="0"/><line x1="499.196" y1="139.891" x2="499.196" y2="1481.203" style="stroke:#181818;stroke-width:0.5;stroke-dasharray:5,5;"/></g><g><title>Application</title><rect x="746.219" y="139.891" width="8" height="1341.313" fill="#000" fill-opacity="0"/><line x1="749.719" y1="139.891" x2="749.719" y2="1481.203" style="stroke:#181818;stroke-width:0.5;stroke-dasharray:5,5;"/></g><g><title>Base de donn.es</title><rect x="1003.338" y="139.891" width="8" height="1341.313" fill="#000" fill-opacity="0"/><line x1="1006.838" y1="139.891" x2="1006.838" y2="1481.203" style="stroke:#181818;stroke-width:0.5;stroke-dasharray:5,5;"/></g><text x="210.915" y="120.292" fill="#000" font-size="14" textLength="72.017">Entreprise</text><text x="189.658" y="136.589" fill="#000" font-size="14" textLength="114.529">(administrateur)</text><ellipse cx="249.923" cy="55.797" rx="8" ry="8" fill="#E2E2F0" style="stroke:#181818;stroke-width:0.5;"/><path d="M249.923,63.797 L249.923,90.797 M236.923,71.797 L262.923,71.797 M249.923,90.797 L236.923,105.797 M249.923,90.797 L262.923,105.797" style="stroke:#181818;stroke-width:0.5;" fill="none"/><rect x="407.799" y="92.297" width="182.793" height="46.594" fill="#E2E2F0" style="stroke:#181818;stroke-width:0.5;" rx="2.5" ry="2.5"/><text x="414.799" y="112.292" fill="#000" font-size="14" textLength="168.793">Espace d'administration</text><text x="449.895" y="128.589" fill="#000" font-size="14" textLength="98.602">(desktop / PC)</text><rect x="703.607" y="92.297" width="92.224" height="46.594" fill="#E2E2F0" style="stroke:#181818;stroke-width:0.5;" rx="2.5" ry="2.5"/><text x="710.607" y="112.292" fill="#000" font-size="14" textLength="78.224">Application</text><text x="711.91" y="128.589" fill="#000" font-size="14" textLength="75.619">(back-end)</text><text x="943.733" y="136.589" fill="#000" font-size="14" textLength="120.21">Base de données</text><path d="M988.838,87.594 C988.838,77.594 1006.838,77.594 1006.838,77.594 C1006.838,77.594 1024.838,77.594 1024.838,87.594 L1024.838,113.594 C1024.838,123.594 1006.838,123.594 1006.838,123.594 C1006.838,123.594 988.838,123.594 988.838,113.594 L988.838,87.594" style="stroke:#181818;stroke-width:0.5;" fill="#E2E2F0"/><path d="M988.838,87.594 C988.838,97.594 1006.838,97.594 1006.838,97.594 C1006.838,97.594 1024.838,97.594 1024.838,87.594" style="stroke:#181818;stroke-width:0.5;" fill="none"/><text x="210.915" y="1494.198" fill="#000" font-size="14" textLength="72.017">Entreprise</text><text x="189.658" y="1510.495" fill="#000" font-size="14" textLength="114.529">(administrateur)</text><ellipse cx="249.923" cy="1522.297" rx="8" ry="8" fill="#E2E2F0" style="stroke:#181818;stroke-width:0.5;"/><path d="M249.923,1530.297 L249.923,1557.297 M236.923,1538.297 L262.923,1538.297 M249.923,1557.297 L236.923,1572.297 M249.923,1557.297 L262.923,1572.297" style="stroke:#181818;stroke-width:0.5;" fill="none"/><rect x="407.799" y="1481.203" width="182.793" height="46.594" fill="#E2E2F0" style="stroke:#181818;stroke-width:0.5;" rx="2.5" ry="2.5"/><text x="414.799" y="1501.198" fill="#000" font-size="14" textLength="168.793">Espace d'administration</text><text x="449.895" y="1517.495" fill="#000" font-size="14" textLength="98.602">(desktop / PC)</text><rect x="703.607" y="1481.203" width="92.224" height="46.594" fill="#E2E2F0" style="stroke:#181818;stroke-width:0.5;" rx="2.5" ry="2.5"/><text x="710.607" y="1501.198" fill="#000" font-size="14" textLength="78.224">Application</text><text x="711.91" y="1517.495" fill="#000" font-size="14" textLength="75.619">(back-end)</text><text x="943.733" y="1494.198" fill="#000" font-size="14" textLength="120.21">Base de données</text><path d="M988.838,1507.5 C988.838,1497.5 1006.838,1497.5 1006.838,1497.5 C1006.838,1497.5 1024.838,1497.5 1024.838,1507.5 L1024.838,1533.5 C1024.838,1543.5 1006.838,1543.5 1006.838,1543.5 C1006.838,1543.5 988.838,1543.5 988.838,1533.5 L988.838,1507.5" style="stroke:#181818;stroke-width:0.5;" fill="#E2E2F0"/><path d="M988.838,1507.5 C988.838,1517.5 1006.838,1517.5 1006.838,1517.5 C1006.838,1517.5 1024.838,1517.5 1024.838,1507.5" style="stroke:#181818;stroke-width:0.5;" fill="none"/><path d="M434.138,152.891 L434.138,192.891 L814.138,192.891 L814.138,162.891 L804.138,152.891 L434.138,152.891" style="stroke:#181818;stroke-width:0.5;" fill="#FEFFDD"/><path d="M804.138,152.891 L804.138,162.891 L814.138,162.891 L804.138,152.891" style="stroke:#181818;stroke-width:0.5;" fill="#FEFFDD"/><text x="440.138" y="169.958" fill="#000" font-size="13" textLength="334.623">Un seul profil administrateur, usage sur ordinateur.</text><text x="440.138" y="185.09" fill="#000" font-size="13" textLength="359.639">Aucun sous-compte (capitaine, vendeur…).  (CDC §4.2)</text><rect x="10" y="218.723" width="1161.265" height="3" fill="#EEE" style="stroke:#EEE;stroke-width:1;"/><line x1="10" y1="218.723" x2="1171.265" y2="218.723" style="stroke:#000;stroke-width:1;"/><line x1="10" y1="221.723" x2="1171.265" y2="221.723" style="stroke:#000;stroke-width:1;"/><rect x="440.553" y="208.156" width="300.159" height="23.133" fill="#EEE" style="stroke:#000;stroke-width:2;"/><text x="446.553" y="224.223" fill="#000" font-size="13" textLength="281.633" font-weight="700">1. Connexion sécurisée (accès unique)</text><polygon points="487.196,258.422,497.196,262.422,487.196,266.422,491.196,262.422" fill="#181818" style="stroke:#181818;stroke-width:1;stroke-linejoin:miter;stroke-miterlimit:10;"/><line x1="249.923" y1="262.422" x2="493.196" y2="262.422" style="stroke:#181818;stroke-width:1;"/><text x="298.939" y="257.356" fill="#000" font-size="13" font-weight="700">1</text><text x="311.985" y="257.356" fill="#000" font-size="13" textLength="35.312">Saisit</text><text x="347.297" y="257.356" fill="#000" font-size="13"> </text><text x="351.429" y="257.356" fill="#000" font-size="13" textLength="21.544">ses</text><text x="372.973" y="257.356" fill="#000" font-size="13"> </text><text x="377.105" y="257.356" fill="#000" font-size="13" textLength="73.074">identifiants</text><polygon points="737.719,287.555,747.719,291.555,737.719,295.555,741.719,291.555" fill="#181818" style="stroke:#181818;stroke-width:1;stroke-linejoin:miter;stroke-miterlimit:10;"/><line x1="499.196" y1="291.555" x2="743.719" y2="291.555" style="stroke:#181818;stroke-width:1;"/><text x="527.046" y="286.489" fill="#000" font-size="13" font-weight="700">2</text><text x="540.091" y="286.489" fill="#000" font-size="13" textLength="63.127">Demande</text><text x="603.219" y="286.489" fill="#000" font-size="13"> </text><text x="607.351" y="286.489" fill="#000" font-size="13" textLength="114.518">d'authentification</text><polygon points="994.838,316.688,1004.838,320.688,994.838,324.688,998.838,320.688" fill="#181818" style="stroke:#181818;stroke-width:1;stroke-linejoin:miter;stroke-miterlimit:10;"/><line x1="749.719" y1="320.688" x2="1000.838" y2="320.688" style="stroke:#181818;stroke-width:1;"/><text x="800.878" y="315.622" fill="#000" font-size="13" font-weight="700">3</text><text x="813.923" y="315.622" fill="#000" font-size="13" textLength="42.034">Vérifie</text><text x="855.958" y="315.622" fill="#000" font-size="13"> </text><text x="860.09" y="315.622" fill="#000" font-size="13" textLength="18.383">les</text><text x="878.473" y="315.622" fill="#000" font-size="13"> </text><text x="882.605" y="315.622" fill="#000" font-size="13" textLength="73.074">identifiants</text><polygon points="760.719,345.82,750.719,349.82,760.719,353.82,756.719,349.82" fill="#181818" style="stroke:#181818;stroke-width:1;stroke-linejoin:miter;stroke-miterlimit:10;"/><line x1="754.719" y1="349.82" x2="1005.838" y2="349.82" style="stroke:#181818;stroke-width:1;stroke-dasharray:2,2;"/><text x="774.434" y="344.754" fill="#000" font-size="13" font-weight="700">4</text><text x="787.479" y="344.754" fill="#000" font-size="13" textLength="51.042">Compte</text><text x="838.521" y="344.754" fill="#000" font-size="13"> </text><text x="842.653" y="344.754" fill="#000" font-size="13" textLength="96.205">administrateur</text><text x="938.858" y="344.754" fill="#000" font-size="13"> </text><text x="942.99" y="344.754" fill="#000" font-size="13" textLength="39.133">validé</text><path d="M233.923,361.82 L298.366,361.82 L298.366,368.953 L288.366,378.953 L233.923,378.953 L233.923,361.82" style="stroke:#000;stroke-width:1.5;" fill="#EEE"/><rect x="233.923" y="361.82" width="531.796" height="162.469" fill="none" style="stroke:#000;stroke-width:1.5;"/><text x="248.923" y="374.887" fill="#000" font-size="13" textLength="19.443" font-weight="700">alt</text><text x="313.366" y="374.031" fill="#000" font-size="11" textLength="129.803" font-weight="700">[Identifiants valides]</text><polygon points="510.196,406.086,500.196,410.086,510.196,414.086,506.196,410.086" fill="#181818" style="stroke:#181818;stroke-width:1;stroke-linejoin:miter;stroke-miterlimit:10;"/><line x1="504.196" y1="410.086" x2="748.719" y2="410.086" style="stroke:#181818;stroke-width:1;stroke-dasharray:2,2;"/><text x="564.199" y="405.02" fill="#000" font-size="13" font-weight="700">5</text><text x="577.244" y="405.02" fill="#000" font-size="13" textLength="39.508">Ouvre</text><text x="616.752" y="405.02" fill="#000" font-size="13"> </text><text x="620.884" y="405.02" fill="#000" font-size="13" textLength="11.578">la</text><text x="632.462" y="405.02" fill="#000" font-size="13"> </text><text x="636.595" y="405.02" fill="#000" font-size="13" textLength="48.122">session</text><polygon points="260.923,435.219,250.923,439.219,260.923,443.219,256.923,439.219" fill="#181818" style="stroke:#181818;stroke-width:1;stroke-linejoin:miter;stroke-miterlimit:10;"/><line x1="254.923" y1="439.219" x2="498.196" y2="439.219" style="stroke:#181818;stroke-width:1;stroke-dasharray:2,2;"/><text x="285.098" y="434.153" fill="#000" font-size="13" font-weight="700">6</text><text x="298.144" y="434.153" fill="#000" font-size="13" textLength="37.959">Accès</text><text x="336.103" y="434.153" fill="#000" font-size="13"> </text><text x="340.235" y="434.153" fill="#000" font-size="13" textLength="16.206">au</text><text x="356.44" y="434.153" fill="#000" font-size="13"> </text><text x="360.573" y="434.153" fill="#000" font-size="13" textLength="49.131">tableau</text><text x="409.704" y="434.153" fill="#000" font-size="13"> </text><text x="413.836" y="434.153" fill="#000" font-size="13" textLength="16.25">de</text><text x="430.086" y="434.153" fill="#000" font-size="13"> </text><text x="434.218" y="434.153" fill="#000" font-size="13" textLength="29.802">bord</text><line x1="233.923" y1="448.219" x2="765.719" y2="448.219" style="stroke:#000;stroke-width:1;stroke-dasharray:2,2;"/><text x="238.923" y="460.429" fill="#000" font-size="11" textLength="141.405" font-weight="700">[Identifiants invalides]</text><polygon points="510.196,483.156,500.196,487.156,510.196,491.156,506.196,487.156" fill="#181818" style="stroke:#181818;stroke-width:1;stroke-linejoin:miter;stroke-miterlimit:10;"/><line x1="504.196" y1="487.156" x2="748.719" y2="487.156" style="stroke:#181818;stroke-width:1;stroke-dasharray:2,2;"/><text x="573.13" y="482.09" fill="#000" font-size="13" font-weight="700">7</text><text x="586.175" y="482.09" fill="#000" font-size="13" textLength="36.62">Refus</text><text x="622.795" y="482.09" fill="#000" font-size="13"> </text><text x="626.927" y="482.09" fill="#000" font-size="13" textLength="48.858">d'accès</text><polygon points="260.923,512.289,250.923,516.289,260.923,520.289,256.923,516.289" fill="#181818" style="stroke:#181818;stroke-width:1;stroke-linejoin:miter;stroke-miterlimit:10;"/><line x1="254.923" y1="516.289" x2="498.196" y2="516.289" style="stroke:#181818;stroke-width:1;stroke-dasharray:2,2;"/><text x="311.435" y="511.223" fill="#000" font-size="13" font-weight="700">8</text><text x="324.48" y="511.223" fill="#000" font-size="13" textLength="56.977">Message</text><text x="381.457" y="511.223" fill="#000" font-size="13"> </text><text x="385.589" y="511.223" fill="#000" font-size="13" textLength="52.095">d'erreur</text><path d="M754.719,543.289 L754.719,568.289 L1165.719,568.289 L1165.719,553.289 L1155.719,543.289 L754.719,543.289" style="stroke:#181818;stroke-width:0.5;" fill="#FEFFDD"/><path d="M1155.719,543.289 L1155.719,553.289 L1165.719,553.289 L1155.719,543.289" style="stroke:#181818;stroke-width:0.5;" fill="#FEFFDD"/><text x="760.719" y="560.356" fill="#000" font-size="13" textLength="390.546">CDC §4.2 — accès sécurisé unique, pas de multi-utilisateurs</text><rect x="10" y="593.988" width="1161.265" height="3" fill="#EEE" style="stroke:#EEE;stroke-width:1;"/><line x1="10" y1="593.988" x2="1171.265" y2="593.988" style="stroke:#000;stroke-width:1;"/><line x1="10" y1="596.988" x2="1171.265" y2="596.988" style="stroke:#000;stroke-width:1;"/><rect x="479.769" y="583.422" width="221.727" height="23.133" fill="#EEE" style="stroke:#000;stroke-width:2;"/><text x="485.769" y="599.489" fill="#000" font-size="13" textLength="203.201" font-weight="700">2. Consultation du planning</text><polygon points="487.196,633.688,497.196,637.688,487.196,641.688,491.196,637.688" fill="#181818" style="stroke:#181818;stroke-width:1;stroke-linejoin:miter;stroke-miterlimit:10;"/><line x1="249.923" y1="637.688" x2="493.196" y2="637.688" style="stroke:#181818;stroke-width:1;"/><text x="261.923" y="632.622" fill="#000" font-size="13" font-weight="700">9</text><text x="274.968" y="632.622" fill="#000" font-size="13" textLength="76.146">Sélectionne</text><text x="351.115" y="632.622" fill="#000" font-size="13"> </text><text x="355.247" y="632.622" fill="#000" font-size="13" textLength="16.479">un</text><text x="371.726" y="632.622" fill="#000" font-size="13"> </text><text x="375.858" y="632.622" fill="#000" font-size="13" textLength="25.149">jour</text><text x="401.007" y="632.622" fill="#000" font-size="13"> </text><text x="405.14" y="632.622" fill="#000" font-size="13">/</text><text x="409.52" y="632.622" fill="#000" font-size="13"> </text><text x="413.652" y="632.622" fill="#000" font-size="13" textLength="16.479">un</text><text x="430.13" y="632.622" fill="#000" font-size="13"> </text><text x="434.263" y="632.622" fill="#000" font-size="13" textLength="52.933">créneau</text><polygon points="737.719,677.953,747.719,681.953,737.719,685.953,741.719,681.953" fill="#181818" style="stroke:#181818;stroke-width:1;stroke-linejoin:miter;stroke-miterlimit:10;"/><line x1="499.196" y1="681.953" x2="743.719" y2="681.953" style="stroke:#181818;stroke-width:1;"/><text x="524.462" y="669.321" fill="#000" font-size="13" textLength="18.091" font-weight="700">10</text><text x="546.553" y="661.754" fill="#000" font-size="13" textLength="63.127">Demande</text><text x="609.681" y="661.754" fill="#000" font-size="13"> </text><text x="613.813" y="661.754" fill="#000" font-size="13" textLength="11.61">le</text><text x="625.423" y="661.754" fill="#000" font-size="13"> </text><text x="629.555" y="661.754" fill="#000" font-size="13" textLength="56.412">planning</text><text x="685.967" y="661.754" fill="#000" font-size="13"> </text><text x="690.099" y="661.754" fill="#000" font-size="13" textLength="34.354">(jour,</text><text x="606.5" y="676.887" fill="#000" font-size="13" textLength="58.005">créneau)</text><polygon points="994.838,722.219,1004.838,726.219,994.838,730.219,998.838,726.219" fill="#181818" style="stroke:#181818;stroke-width:1;stroke-linejoin:miter;stroke-miterlimit:10;"/><line x1="749.719" y1="726.219" x2="1000.838" y2="726.219" style="stroke:#181818;stroke-width:1;"/><text x="789.052" y="713.586" fill="#000" font-size="13" textLength="18.091" font-weight="700">11</text><text x="811.143" y="706.02" fill="#000" font-size="13" textLength="15.952">Lit</text><text x="827.095" y="706.02" fill="#000" font-size="13"> </text><text x="831.227" y="706.02" fill="#000" font-size="13" textLength="18.383">les</text><text x="849.61" y="706.02" fill="#000" font-size="13"> </text><text x="853.742" y="706.02" fill="#000" font-size="13" textLength="80.793">réservations</text><text x="934.535" y="706.02" fill="#000" font-size="13"> </text><text x="938.667" y="706.02" fill="#000" font-size="13" textLength="13.095">et</text><text x="951.763" y="706.02" fill="#000" font-size="13"> </text><text x="955.895" y="706.02" fill="#000" font-size="13" textLength="11.61">le</text><text x="849.702" y="721.153" fill="#000" font-size="13" textLength="79.244">remplissage</text><polygon points="760.719,766.484,750.719,770.484,760.719,774.484,756.719,770.484" fill="#181818" style="stroke:#181818;stroke-width:1;stroke-linejoin:miter;stroke-miterlimit:10;"/><line x1="754.719" y1="770.484" x2="1005.838" y2="770.484" style="stroke:#181818;stroke-width:1;stroke-dasharray:2,2;"/><text x="761.719" y="757.852" fill="#000" font-size="13" textLength="18.091" font-weight="700">12</text><text x="783.81" y="750.286" fill="#000" font-size="13" textLength="84.481">Réservations</text><text x="868.291" y="750.286" fill="#000" font-size="13"> </text><text x="872.423" y="750.286" fill="#000" font-size="13">+</text><text x="883.316" y="750.286" fill="#000" font-size="13"> </text><text x="887.448" y="750.286" fill="#000" font-size="13" textLength="41.749">places</text><text x="929.197" y="750.286" fill="#000" font-size="13"> </text><text x="933.329" y="750.286" fill="#000" font-size="13" textLength="61.509">occupées</text><text x="823.308" y="765.418" fill="#000" font-size="13" textLength="47.912">(jauges</text><text x="871.22" y="765.418" fill="#000" font-size="13"> </text><text x="875.353" y="765.418" fill="#000" font-size="13" textLength="16.542">12</text><text x="891.895" y="765.418" fill="#000" font-size="13"> </text><text x="896.027" y="765.418" fill="#000" font-size="13">/</text><text x="900.407" y="765.418" fill="#000" font-size="13"> </text><text x="904.539" y="765.418" fill="#000" font-size="13" textLength="16.542">24</text><text x="921.081" y="765.418" fill="#000" font-size="13"> </text><text x="925.214" y="765.418" fill="#000" font-size="13">/</text><text x="929.594" y="765.418" fill="#000" font-size="13"> </text><text x="933.726" y="765.418" fill="#000" font-size="13" textLength="21.614">36)</text><polygon points="510.196,795.617,500.196,799.617,510.196,803.617,506.196,799.617" fill="#181818" style="stroke:#181818;stroke-width:1;stroke-linejoin:miter;stroke-miterlimit:10;"/><line x1="504.196" y1="799.617" x2="748.719" y2="799.617" style="stroke:#181818;stroke-width:1;stroke-dasharray:2,2;"/><text x="511.196" y="794.551" fill="#000" font-size="13" textLength="18.091" font-weight="700">13</text><text x="533.287" y="794.551" fill="#000" font-size="13" textLength="55.999">Planning</text><text x="589.286" y="794.551" fill="#000" font-size="13"> </text><text x="593.418" y="794.551" fill="#000" font-size="13" textLength="61.541">consolidé</text><text x="654.958" y="794.551" fill="#000" font-size="13"> </text><text x="659.091" y="794.551" fill="#000" font-size="13" textLength="21.563">par</text><text x="680.654" y="794.551" fill="#000" font-size="13"> </text><text x="684.786" y="794.551" fill="#000" font-size="13" textLength="52.933">créneau</text><polygon points="260.923,870.148,250.923,874.148,260.923,878.148,256.923,874.148" fill="#181818" style="stroke:#181818;stroke-width:1;stroke-linejoin:miter;stroke-miterlimit:10;"/><line x1="254.923" y1="874.148" x2="498.196" y2="874.148" style="stroke:#181818;stroke-width:1;stroke-dasharray:2,2;"/><text x="269.543" y="846.383" fill="#000" font-size="13" textLength="18.091" font-weight="700">14</text><text x="291.634" y="823.684" fill="#000" font-size="13" textLength="45.043">Affiche</text><text x="336.677" y="823.684" fill="#000" font-size="13"> </text><text x="340.809" y="823.684" fill="#000" font-size="13" textLength="11.61">le</text><text x="352.419" y="823.684" fill="#000" font-size="13"> </text><text x="356.552" y="823.684" fill="#000" font-size="13" textLength="79.244">remplissage</text><text x="435.796" y="823.684" fill="#000" font-size="13"> </text><text x="439.928" y="823.684" fill="#000" font-size="13" textLength="39.647">global</text><text x="301.6" y="838.817" fill="#000" font-size="13" textLength="85.001">(consultation</text><text x="386.601" y="838.817" fill="#000" font-size="13"> </text><text x="390.734" y="838.817" fill="#000" font-size="13" textLength="34.62">seule</text><text x="425.354" y="838.817" fill="#000" font-size="13"> </text><text x="429.486" y="838.817" fill="#000" font-size="13">—</text><text x="442.486" y="838.817" fill="#000" font-size="13"> </text><text x="446.618" y="838.817" fill="#000" font-size="13" textLength="22.991">pas</text><text x="302.727" y="853.95" fill="#000" font-size="13" textLength="145.374">d'ouverture/fermeture</text><text x="448.101" y="853.95" fill="#000" font-size="13"> </text><text x="452.233" y="853.95" fill="#000" font-size="13" textLength="16.25">de</text><text x="352.756" y="869.083" fill="#000" font-size="13" textLength="65.698">créneaux)</text><path d="M754.719,887.148 L754.719,912.148 L1111.719,912.148 L1111.719,897.148 L1101.719,887.148 L754.719,887.148" style="stroke:#181818;stroke-width:0.5;" fill="#FEFFDD"/><path d="M1101.719,887.148 L1101.719,897.148 L1111.719,897.148 L1101.719,887.148" style="stroke:#181818;stroke-width:0.5;" fill="#FEFFDD"/><text x="760.719" y="904.215" fill="#000" font-size="13" textLength="336.064">CDC §4.2 — planning fixe, consultation uniquement</text><rect x="10" y="937.848" width="1161.265" height="3" fill="#EEE" style="stroke:#EEE;stroke-width:1;"/><line x1="10" y1="937.848" x2="1171.265" y2="937.848" style="stroke:#000;stroke-width:1;"/><line x1="10" y1="940.848" x2="1171.265" y2="940.848" style="stroke:#000;stroke-width:1;"/><rect x="386.668" y="927.281" width="407.929" height="23.133" fill="#EEE" style="stroke:#000;stroke-width:2;"/><text x="392.668" y="943.348" fill="#000" font-size="13" textLength="389.403" font-weight="700">3. Détail d'une réservation (préparation du dispatch)</text><polygon points="487.196,977.547,497.196,981.547,487.196,985.547,491.196,981.547" fill="#181818" style="stroke:#181818;stroke-width:1;stroke-linejoin:miter;stroke-miterlimit:10;"/><line x1="249.923" y1="981.547" x2="493.196" y2="981.547" style="stroke:#181818;stroke-width:1;"/><text x="290.379" y="976.481" fill="#000" font-size="13" textLength="18.091" font-weight="700">15</text><text x="312.47" y="976.481" fill="#000" font-size="13" textLength="39.508">Ouvre</text><text x="351.978" y="976.481" fill="#000" font-size="13"> </text><text x="356.11" y="976.481" fill="#000" font-size="13" textLength="24.477">une</text><text x="380.587" y="976.481" fill="#000" font-size="13"> </text><text x="384.719" y="976.481" fill="#000" font-size="13" textLength="74.02">réservation</text><polygon points="737.719,1006.68,747.719,1010.68,737.719,1014.68,741.719,1010.68" fill="#181818" style="stroke:#181818;stroke-width:1;stroke-linejoin:miter;stroke-miterlimit:10;"/><line x1="499.196" y1="1010.68" x2="743.719" y2="1010.68" style="stroke:#181818;stroke-width:1;"/><text x="553.643" y="1005.614" fill="#000" font-size="13" textLength="18.091" font-weight="700">16</text><text x="575.733" y="1005.614" fill="#000" font-size="13" textLength="63.127">Demande</text><text x="638.861" y="1005.614" fill="#000" font-size="13"> </text><text x="642.993" y="1005.614" fill="#000" font-size="13" textLength="11.61">le</text><text x="654.603" y="1005.614" fill="#000" font-size="13"> </text><text x="658.735" y="1005.614" fill="#000" font-size="13" textLength="36.537">détail</text><polygon points="994.838,1050.945,1004.838,1054.945,994.838,1058.945,998.838,1054.945" fill="#181818" style="stroke:#181818;stroke-width:1;stroke-linejoin:miter;stroke-miterlimit:10;"/><line x1="749.719" y1="1054.945" x2="1000.838" y2="1054.945" style="stroke:#181818;stroke-width:1;"/><text x="766.978" y="1042.313" fill="#000" font-size="13" textLength="18.091" font-weight="700">17</text><text x="789.069" y="1034.747" fill="#000" font-size="13" textLength="15.952">Lit</text><text x="805.021" y="1034.747" fill="#000" font-size="13"> </text><text x="809.153" y="1034.747" fill="#000" font-size="13" textLength="11.578">la</text><text x="820.731" y="1034.747" fill="#000" font-size="13"> </text><text x="824.864" y="1034.747" fill="#000" font-size="13" textLength="74.02">réservation</text><text x="898.884" y="1034.747" fill="#000" font-size="13"> </text><text x="903.016" y="1034.747" fill="#000" font-size="13" textLength="86.563">(participants,</text><text x="827.418" y="1049.879" fill="#000" font-size="13" textLength="52.781">contact,</text><text x="880.199" y="1049.879" fill="#000" font-size="13"> </text><text x="884.332" y="1049.879" fill="#000" font-size="13" textLength="66.898">paiement)</text><polygon points="760.719,1080.078,750.719,1084.078,760.719,1088.078,756.719,1084.078" fill="#181818" style="stroke:#181818;stroke-width:1;stroke-linejoin:miter;stroke-miterlimit:10;"/><line x1="754.719" y1="1084.078" x2="1005.838" y2="1084.078" style="stroke:#181818;stroke-width:1;stroke-dasharray:2,2;"/><text x="790.963" y="1079.012" fill="#000" font-size="13" textLength="18.091" font-weight="700">18</text><text x="813.054" y="1079.012" fill="#000" font-size="13" textLength="38.295">Détail</text><text x="851.349" y="1079.012" fill="#000" font-size="13"> </text><text x="855.481" y="1079.012" fill="#000" font-size="13" textLength="16.25">de</text><text x="871.731" y="1079.012" fill="#000" font-size="13"> </text><text x="875.864" y="1079.012" fill="#000" font-size="13" textLength="11.578">la</text><text x="887.442" y="1079.012" fill="#000" font-size="13"> </text><text x="891.574" y="1079.012" fill="#000" font-size="13" textLength="74.02">réservation</text><polygon points="510.196,1109.211,500.196,1113.211,510.196,1117.211,506.196,1113.211" fill="#181818" style="stroke:#181818;stroke-width:1;stroke-linejoin:miter;stroke-miterlimit:10;"/><line x1="504.196" y1="1113.211" x2="748.719" y2="1113.211" style="stroke:#181818;stroke-width:1;stroke-dasharray:2,2;"/><text x="537.142" y="1108.145" fill="#000" font-size="13" textLength="18.091" font-weight="700">19</text><text x="559.233" y="1108.145" fill="#000" font-size="13" textLength="38.295">Détail</text><text x="597.528" y="1108.145" fill="#000" font-size="13"> </text><text x="601.66" y="1108.145" fill="#000" font-size="13" textLength="16.25">de</text><text x="617.91" y="1108.145" fill="#000" font-size="13"> </text><text x="622.043" y="1108.145" fill="#000" font-size="13" textLength="11.578">la</text><text x="633.621" y="1108.145" fill="#000" font-size="13"> </text><text x="637.753" y="1108.145" fill="#000" font-size="13" textLength="74.02">réservation</text><polygon points="260.923,1153.477,250.923,1157.477,260.923,1161.477,256.923,1157.477" fill="#181818" style="stroke:#181818;stroke-width:1;stroke-linejoin:miter;stroke-miterlimit:10;"/><line x1="254.923" y1="1157.477" x2="498.196" y2="1157.477" style="stroke:#181818;stroke-width:1;stroke-dasharray:2,2;"/><text x="288.488" y="1144.844" fill="#000" font-size="13" textLength="18.091" font-weight="700">20</text><text x="311.578" y="1137.278" fill="#000" font-size="13" textLength="45.043">Affiche</text><text x="356.621" y="1137.278" fill="#000" font-size="13"> </text><text x="360.754" y="1137.278" fill="#000" font-size="13" textLength="83.853">coordonnées</text><text x="444.606" y="1137.278" fill="#000" font-size="13"> </text><text x="448.739" y="1137.278" fill="#000" font-size="13">+</text><text x="310.579" y="1152.411" fill="#000" font-size="13" textLength="79.257">composition</text><text x="389.835" y="1152.411" fill="#000" font-size="13"> </text><text x="393.968" y="1152.411" fill="#000" font-size="13" textLength="16.491">du</text><text x="410.459" y="1152.411" fill="#000" font-size="13"> </text><text x="414.591" y="1152.411" fill="#000" font-size="13" textLength="46.04">groupe</text><path d="M40.164,1170.477 L40.164,1210.477 L459.164,1210.477 L459.164,1180.477 L449.164,1170.477 L40.164,1170.477" style="stroke:#181818;stroke-width:0.5;" fill="#FEFFDD"/><path d="M449.164,1170.477 L449.164,1180.477 L459.164,1180.477 L449.164,1170.477" style="stroke:#181818;stroke-width:0.5;" fill="#FEFFDD"/><text x="46.164" y="1187.543" fill="#000" font-size="13" textLength="291.732">Le dispatch des passagers par bateau se fait</text><text x="46.164" y="1202.676" fill="#000" font-size="13" textLength="398.519">physiquement avant l'excursion, hors plateforme (CDC §2.2).</text><rect x="10" y="1236.309" width="1161.265" height="3" fill="#EEE" style="stroke:#EEE;stroke-width:1;"/><line x1="10" y1="1236.309" x2="1171.265" y2="1236.309" style="stroke:#000;stroke-width:1;"/><line x1="10" y1="1239.309" x2="1171.265" y2="1239.309" style="stroke:#000;stroke-width:1;"/><rect x="399.63" y="1225.742" width="382.005" height="23.133" fill="#EEE" style="stroke:#000;stroke-width:2;"/><text x="405.63" y="1241.809" fill="#000" font-size="13" textLength="363.479" font-weight="700">4. Annulation / remboursement (hors plateforme)</text><polygon points="237.923,1291.141,247.923,1295.141,237.923,1299.141,241.923,1295.141" fill="#181818" style="stroke:#181818;stroke-width:1;stroke-linejoin:miter;stroke-miterlimit:10;"/><line x1="10" y1="1295.141" x2="243.923" y2="1295.141" style="stroke:#181818;stroke-width:1;"/><text x="22" y="1282.508" fill="#000" font-size="13" textLength="18.091" font-weight="700">21</text><text x="44.091" y="1274.942" fill="#000" font-size="13" textLength="15.241">Le</text><text x="59.332" y="1274.942" fill="#000" font-size="13"> </text><text x="63.464" y="1274.942" fill="#000" font-size="13" textLength="35.706">client</text><text x="99.169" y="1274.942" fill="#000" font-size="13"> </text><text x="103.302" y="1274.942" fill="#000" font-size="13" textLength="56.646">contacte</text><text x="159.948" y="1274.942" fill="#000" font-size="13"> </text><text x="164.081" y="1274.942" fill="#000" font-size="13" textLength="73.842">l'entreprise</text><text x="51.844" y="1290.075" fill="#000" font-size="13" textLength="74.591">(téléphone,</text><text x="126.436" y="1290.075" fill="#000" font-size="13"> </text><text x="130.568" y="1290.075" fill="#000" font-size="13" textLength="44.675">e-mail,</text><text x="175.243" y="1290.075" fill="#000" font-size="13"> </text><text x="179.375" y="1290.075" fill="#000" font-size="13" textLength="50.794">accueil)</text><line x1="249.923" y1="1354.539" x2="291.923" y2="1354.539" style="stroke:#181818;stroke-width:1;"/><line x1="291.923" y1="1354.539" x2="291.923" y2="1367.539" style="stroke:#181818;stroke-width:1;"/><line x1="250.923" y1="1367.539" x2="291.923" y2="1367.539" style="stroke:#181818;stroke-width:1;"/><polygon points="260.923,1363.539,250.923,1367.539,260.923,1371.539,256.923,1367.539" fill="#181818" style="stroke:#181818;stroke-width:1;stroke-linejoin:miter;stroke-miterlimit:10;"/><text x="256.923" y="1334.34" fill="#000" font-size="13" textLength="18.091" font-weight="700">22</text><text x="288.291" y="1319.208" fill="#000" font-size="13" textLength="37.959">Traite</text><text x="326.25" y="1319.208" fill="#000" font-size="13"> </text><text x="330.382" y="1319.208" fill="#000" font-size="13" textLength="76.35">l'annulation</text><text x="406.732" y="1319.208" fill="#000" font-size="13"> </text><text x="410.864" y="1319.208" fill="#000" font-size="13" textLength="13.095">et</text><text x="423.959" y="1319.208" fill="#000" font-size="13"> </text><text x="428.092" y="1319.208" fill="#000" font-size="13" textLength="11.61">le</text><text x="311.714" y="1334.34" fill="#000" font-size="13" textLength="104.565">remboursement</text><text x="279.014" y="1349.473" fill="#000" font-size="13" textLength="79.447">directement</text><text x="358.461" y="1349.473" fill="#000" font-size="13"> </text><text x="362.593" y="1349.473" fill="#000" font-size="13" textLength="30.805">avec</text><text x="393.398" y="1349.473" fill="#000" font-size="13"> </text><text x="397.531" y="1349.473" fill="#000" font-size="13" textLength="11.61">le</text><text x="409.141" y="1349.473" fill="#000" font-size="13"> </text><text x="413.273" y="1349.473" fill="#000" font-size="13" textLength="35.706">client</text><path d="M201.735,1380.539 L201.735,1465.539 L797.735,1465.539 L797.735,1390.539 L787.735,1380.539 L201.735,1380.539" style="stroke:#181818;stroke-width:0.5;" fill="#FEFFDD"/><path d="M787.735,1380.539 L787.735,1390.539 L797.735,1390.539 L787.735,1380.539" style="stroke:#181818;stroke-width:0.5;" fill="#FEFFDD"/><text x="300.962" y="1397.606" fill="#000" font-size="13" textLength="216.506">CDC §2.2 / §4.2 — hors système :</text><text x="300.962" y="1412.739" fill="#000" font-size="13" textLength="193.273">• aucune annulation en ligne,</text><text x="300.962" y="1427.872" fill="#000" font-size="13" textLength="356.351">• remboursement géré manuellement par l'entreprise.</text><text x="300.962" y="1443.004" fill="#000" font-size="13" textLength="388.718">La plateforme ne pilote ni l'annulation ni le remboursement</text><text x="300.962" y="1458.137" fill="#000" font-size="13" textLength="347.947">(aucune notification/alerte automatique n'est émise).</text><?plantuml-src ZLRBRkCs5DthAowoiOtQJiSJT3502ZXn5mEaQ32FRZeRchgssL2KoeUHwMe-eb_GHJj6Fw6x-4_o9Jsa95ioag0RFwJB-pZdy91UUSsqK69jHL4mvKnkl_iji95CZr_-e5jXPHcien-CjrnPvPZUqCC_DCyBPPJ3GqlioGMrjKnw8AHNM-NtEthubuOVrE1AQ5Q6HrdcxfIf10gHuxh4Z-oSMFDSgxKXoSQpxKGLuhu9UAz-PvhDlir4yAK9nH9n6IgLbiwEZNqoGz5s9Jm7EpeZuUfECwJqIgfA68yrhX8OC1zqubLfa21dT-VBYixfzhgp_EFRVe9vLMabsqLB8UycRF9cGLLbkV1YAO3LsLNy1AnvQSn-now5N2qMMMPAprHkWLzJOfoM4dqq02XegcovKfhwCuqfH4G0kANIvigafrCicmSPiB8CRYBBeaBoeHILyWBeZscB_X3u-EMlqPHeUBsufeU_BwQpKOON57l9iijBUZMbQtJAzvWiIa4688k-QIYat7zr58m2ToEwlCnIspJvlkqVmdWlb5DG0pjIEVXKAmMyNDP6nE2gGk222s7oH47mcpgonZEB0OW3HeZxUR-pU0LbdQQCxoU7VDVrn7siQ2kqolUxJ6XFRpkBwnViW1gb19FU53-5f6KHvt2nfHJMZj268d1UOo82WMxD-CP8Iz2IiGRjlPBAl5pq7Q-2YtYadC-MR7O40jbQp1ZfgwLarNhZgLorYBGCfttSi7Taj25oJ1NqYAwBeBsQ1A-qSWayb_GmItfmU9d8eJnGfOKnogoVay1-frd6OCCeGh_2Fh2Ty4lQ_Su0fEVL02ywP1_6XUF3eb5V5pTGMPG4tZgsszISYqQ459OBxCu4qubAtlMYlud599AKKeOgRauK5M6DxrSpj3oxmCVhxvhAlI5lsoub4fL9P03IFZ5YLoqhQ7p39otIMfTBeM4ZiWjqT83QWXD1WpB0ANomVBvYMt3y5Mbh2zwF_eS83jYkr3sOxzMhvL10i8dtrrDQx7Vm3etQ0KnsWQPXXR_Hf5jDv0gEwkNcEL-eTzHfdXU5aDVbdw1Td3PpT6QNfl8u6gAmLPfdT2A2mrnycke9ebyAVe5YMS846iU7pg8Vbp361gsrBKF5fmS0jlmD7v14HHUfZnAnBebhYNq9Yu6nh8Jo2AysdrtB6ebjF9dqWE-nmwDhZMbJnfKQorObDDEw_WokF-tR_iMKviO4NIDw7lMvZCT-dNfuaYYn_4jdRFGjjOgX3Vhn9i3TWnaN0Wt9RCfu5l6a0ARZQ4g1bHwTA0O9FrXCcAuJnwuEc_lOsIUJAmkpQH5W6KFgLaxXRK_N0mOOyxWrqeJki_Fxhm3g3U8Ul_m9OvTHizqc3CNB2e-RY3vGQvnMS09eEB3MzRF8N1UCU5JVY2ujg50f7RirgZzo_7yoCbOFcxOmuE7KFCSjoyO341Ua0a-W2Z83Tfxskm9LEuJ_1m00?></g></svg>